<svg width="24" height="24" viewBox="0 0 24 24" fill="none" xmlns="http://www.w3.org/2000/svg">
<path d="M13.9332 2.00078C14.3393 1.98236 14.6812 2.29111 14.6968 2.69024L14.067 8.9793C14.0826 9.37854 13.7652 9.71751 13.3589 9.73613C12.9528 9.75462 12.6109 9.44585 12.5953 9.04668L13.0367 5.31133C12.1522 6.07392 11.4546 7.03612 11.0045 8.12285C10.437 9.49311 10.2884 11.0012 10.5777 12.4559C10.8671 13.9106 11.5807 15.2479 12.6295 16.2967C13.5215 17.1887 14.6227 17.8368 15.8267 18.1893L13.2535 15.1355C13.102 14.7584 13.2805 14.3341 13.6519 14.1873C14.0234 14.0409 14.4474 14.2272 14.5992 14.6043L18.6587 19.7791C18.8104 20.1563 18.6319 20.5807 18.2603 20.7273L12.1158 22.2107C11.7443 22.3573 11.3205 22.1707 11.1685 21.7938C11.0168 21.4166 11.1946 20.9914 11.566 20.8445L15.0982 20.0584C13.6382 19.6019 12.3041 18.7994 11.2154 17.7107C9.88691 16.3822 8.98238 14.6891 8.61578 12.8465C8.24924 11.0038 8.43788 9.09303 9.15679 7.35723C9.64271 6.18429 10.3569 5.12673 11.2505 4.24199L7.76422 5.56817C7.35821 5.58657 7.01634 5.27771 7.00054 4.87871C6.98507 4.47967 7.3015 4.14154 7.70758 4.12285L13.9332 2.00078Z" fill="white"/>
</svg>
