<svg width="380" height="380" viewBox="0 0 380 380" fill="none" xmlns="http://www.w3.org/2000/svg">
<path d="M336.332 192C336.332 111.183 270.817 45.6676 190 45.6676C109.183 45.6676 43.6676 111.183 43.6676 192C43.6676 272.817 109.183 338.332 190 338.332V348C103.844 348 34 278.156 34 192C34 105.844 103.844 36 190 36C276.156 36 346 105.844 346 192C346 278.156 276.156 348 190 348V338.332C270.817 338.332 336.332 272.817 336.332 192Z" fill="white"/>
<path d="M313.833 192C313.833 124.148 258.615 69.1429 190.5 69.1429C122.385 69.1429 67.1667 124.148 67.1667 192C67.1667 259.852 122.385 314.857 190.5 314.857V321C118.979 321 61 263.245 61 192C61 120.755 118.979 63 190.5 63C262.021 63 320 120.755 320 192C320 263.245 262.021 321 190.5 321V314.857C258.615 314.857 313.833 259.852 313.833 192Z" fill="white"/>
<path d="M295.474 175C295.474 111.225 243.775 59.5259 180 59.5259C116.225 59.5259 64.5259 111.225 64.5259 175C64.5259 238.775 116.225 290.474 180 290.474V294C114.278 294 61 240.722 61 175C61 109.278 114.278 56 180 56C245.722 56 299 109.278 299 175C299 240.722 245.722 294 180 294V290.474C243.775 290.474 295.474 238.775 295.474 175Z" fill="white"/>
<path d="M298.119 191.5C298.119 126.539 245.235 73.8778 180 73.8778C114.765 73.8778 61.8815 126.539 61.8815 191.5C61.8815 256.461 114.765 309.122 180 309.122V310C114.278 310 61 256.946 61 191.5C61 126.054 114.278 73 180 73C245.722 73 299 126.054 299 191.5C299 256.946 245.722 310 180 310V309.122C245.235 309.122 298.119 256.461 298.119 191.5Z" fill="white"/>
<path d="M350.366 179.5C350.366 99.4927 285.507 34.6339 205.5 34.6339C125.493 34.6339 60.6339 99.4927 60.6339 179.5C60.6339 259.507 125.493 324.366 205.5 324.366V327C124.038 327 58 260.962 58 179.5C58 98.038 124.038 32 205.5 32C286.962 32 353 98.038 353 179.5C353 260.962 286.962 327 205.5 327V324.366C285.507 324.366 350.366 259.507 350.366 179.5Z" fill="white"/>
<path d="M336.363 192C336.363 107.3 267.7 38.6366 183 38.6366C98.2997 38.6366 29.6366 107.3 29.6366 192C29.6366 276.7 98.2997 345.363 183 345.363V348C96.8436 348 27 278.156 27 192C27 105.844 96.8436 36 183 36C269.156 36 339 105.844 339 192C339 278.156 269.156 348 183 348V345.363C267.7 345.363 336.363 276.7 336.363 192Z" fill="white"/>
<path d="M327.367 196.5C327.367 120.363 265.866 58.6426 190 58.6426C114.134 58.6426 52.6332 120.363 52.6332 196.5C52.6332 272.637 114.134 334.357 190 334.357V337C112.68 337 50 274.096 50 196.5C50 118.904 112.68 56 190 56C267.32 56 330 118.904 330 196.5C330 274.096 267.32 337 190 337V334.357C265.866 334.357 327.367 272.637 327.367 196.5Z" fill="white"/>
<path d="M339.367 187C339.367 111.134 277.866 49.6332 202 49.6332C126.134 49.6332 64.6332 111.134 64.6332 187C64.6332 262.866 126.134 324.367 202 324.367V327C124.68 327 62 264.32 62 187C62 109.68 124.68 47 202 47C279.32 47 342 109.68 342 187C342 264.32 279.32 327 202 327V324.367C277.866 324.367 339.367 262.866 339.367 187Z" fill="white"/>
<path d="M320.361 184.5C320.361 107.257 257.743 44.6389 180.5 44.6389C103.257 44.6389 40.6389 107.257 40.6389 184.5C40.6389 261.743 103.257 324.361 180.5 324.361V327C101.799 327 38 263.201 38 184.5C38 105.799 101.799 42 180.5 42C259.201 42 323 105.799 323 184.5C323 263.201 259.201 327 180.5 327V324.361C257.743 324.361 320.361 261.743 320.361 184.5Z" fill="white"/>
</svg>
